<svg width="764" height="587" viewBox="0 0 764 587" fill="none" xmlns="http://www.w3.org/2000/svg">
<path fill-rule="evenodd" clip-rule="evenodd" d="M288.033 21.1459C190.13 37.3531 122.09 75.7989 78.5893 124.564C35.0638 173.356 15.6216 233.011 15.8241 292.52C16.2306 411.996 95.6354 529.585 216.578 556.452C258.021 565.659 332.493 571.91 406.54 571.131C443.497 570.742 480.138 568.603 512.305 564.257C544.625 559.891 571.823 553.373 590.265 544.524C715.898 484.241 758.141 378.044 746.262 277.733C734.309 176.798 667.603 82.0869 575.138 45.7193C527.068 26.8125 405.75 5.69008 288.033 21.1459ZM285.837 5.49438C406.021 -10.3132 530.139 11.0357 580.936 31.0145C679.45 69.7616 749.421 169.864 761.975 275.877C774.603 382.514 729.183 495.399 597.117 558.77C576.423 568.699 547.267 575.482 514.426 579.919C481.432 584.376 444.108 586.54 406.707 586.934C332.039 587.719 256.232 581.451 213.143 571.879C83.8264 543.152 0.429022 418.185 0.00165404 292.573C-0.212811 229.538 20.4201 166.015 66.7758 114.05C113.137 62.0794 184.744 22.2008 285.579 5.53279L285.708 5.51144L285.837 5.49438Z" fill="white"/>
</svg>
